# MagicaVoxel @ Ephtracy

# group
o 

# material
mtllib car1.mtl
usemtl palette

# normals
vn -1 0 0
vn 1 0 0
vn 0 0 1
vn 0 0 -1
vn 0 -1 0
vn 0 1 0

# texcoords
vt 0.0566406 0.5
vt 0.677734 0.5
vt 0.837891 0.5
vt 0.935547 0.5

# verts
v -1 0 0.5
v -1 0 -0.6
v -1 0.4 0.5
v -1 0.4 -0.6
v -1 1.3 0.5
v -1 1.3 -0.6
v -0.9 1.3 0.4
v -0.9 1.3 -0.5
v -0.9 1.6 0.3
v -0.9 1.6 -0.4
v -0.9 1.7 0.3
v -0.9 1.7 -0.4
v -0.9 1.9 0.3
v -0.9 1.9 -0.4
v -0.9 2 0.4
v -0.9 2 -0.5
v 0.1 1.5 0.4
v 0.1 1.5 -0.5
v 0.1 1.6 0.3
v 0.1 1.6 -0.4
v 0.1 1.7 0.3
v 0.1 1.7 -0.4
v 0.1 1.9 0.3
v 0.1 1.9 -0.4
v 0.1 2 0.4
v 0.1 2 -0.5
v 0.9 0 0.5
v 0.9 0 -0.6
v 0.9 0.1 0.5
v 0.9 0.1 -0.6
v 0.9 1.4 0.4
v 0.9 1.4 0.1
v 0.9 1.4 0
v 0.9 1.4 -0.1
v 0.9 1.4 -0.2
v 0.9 1.4 -0.5
v 0.9 1.5 0.4
v 0.9 1.5 0.1
v 0.9 1.5 0
v 0.9 1.5 -0.1
v 0.9 1.5 -0.2
v 0.9 1.5 -0.5
v 1 0.1 0.5
v 1 0.1 -0.6
v 1 0.4 0.5
v 1 0.4 -0.6
v 1 0.6 0.4
v 1 0.6 0.2
v 1 0.6 0.1
v 1 0.6 -0.1
v 1 0.6 -0.2
v 1 0.6 -0.4
v 1 1.2 0.4
v 1 1.2 0.2
v 1 1.2 0.1
v 1 1.2 -0.1
v 1 1.2 -0.2
v 1 1.2 -0.4
v 1 1.3 0.5
v 1 1.3 0.4
v 1 1.3 -0.5
v 1 1.3 -0.6
v 1 1.4 0.4
v 1 1.4 -0.5
v -1 0 0.5
v -1 0.4 0.5
v -1 1.3 0.5
v -0.8 0 0.5
v -0.8 0.4 0.5
v -0.8 0.5 0.5
v -0.7 0.1 0.5
v -0.7 0.4 0.5
v -0.6 0.2 0.5
v -0.6 0.3 0.5
v -0.5 0.2 0.5
v -0.5 0.3 0.5
v -0.4 0.1 0.5
v -0.4 0.4 0.5
v -0.3 0 0.5
v -0.3 0.4 0.5
v -0.3 0.5 0.5
v 0.3 0 0.5
v 0.3 0.4 0.5
v 0.3 0.5 0.5
v 0.4 0.1 0.5
v 0.4 0.4 0.5
v 0.5 0.2 0.5
v 0.5 0.3 0.5
v 0.6 0.2 0.5
v 0.6 0.3 0.5
v 0.7 0.1 0.5
v 0.7 0.4 0.5
v 0.8 0 0.5
v 0.8 0.4 0.5
v 0.8 0.5 0.5
v 0.9 0 0.5
v 0.9 0.1 0.5
v 1 0.1 0.5
v 1 0.4 0.5
v 1 1.3 0.5
v -0.9 1.3 0.4
v -0.9 2 0.4
v -0.8 1.6 0.4
v -0.8 1.9 0.4
v -0.7 1.7 0.4
v -0.7 1.9 0.4
v -0.1 1.7 0.4
v -0.1 1.9 0.4
v 0 1.6 0.4
v 0 1.9 0.4
v 0.1 1.5 0.4
v 0.1 2 0.4
v 0.9 1.4 0.4
v 0.9 1.5 0.4
v 1 1.3 0.4
v 1 1.4 0.4
v -0.9 1.3 -0.5
v -0.9 2 -0.5
v -0.8 1.6 -0.5
v -0.8 1.9 -0.5
v -0.7 1.7 -0.5
v -0.7 1.9 -0.5
v -0.1 1.7 -0.5
v -0.1 1.9 -0.5
v 0 1.6 -0.5
v 0 1.9 -0.5
v 0.1 1.5 -0.5
v 0.1 2 -0.5
v 0.9 1.4 -0.5
v 0.9 1.5 -0.5
v 1 1.3 -0.5
v 1 1.4 -0.5
v -1 0 -0.6
v -1 0.4 -0.6
v -1 1.3 -0.6
v -0.8 0 -0.6
v -0.8 0.4 -0.6
v -0.8 0.5 -0.6
v -0.7 0.1 -0.6
v -0.7 0.4 -0.6
v -0.6 0.2 -0.6
v -0.6 0.3 -0.6
v -0.5 0.2 -0.6
v -0.5 0.3 -0.6
v -0.4 0.1 -0.6
v -0.4 0.4 -0.6
v -0.3 0 -0.6
v -0.3 0.4 -0.6
v -0.3 0.5 -0.6
v 0.3 0 -0.6
v 0.3 0.4 -0.6
v 0.3 0.5 -0.6
v 0.4 0.1 -0.6
v 0.4 0.4 -0.6
v 0.5 0.2 -0.6
v 0.5 0.3 -0.6
v 0.6 0.2 -0.6
v 0.6 0.3 -0.6
v 0.7 0.1 -0.6
v 0.7 0.4 -0.6
v 0.8 0 -0.6
v 0.8 0.4 -0.6
v 0.8 0.5 -0.6
v 0.9 0 -0.6
v 0.9 0.1 -0.6
v 1 0.1 -0.6
v 1 0.4 -0.6
v 1 1.3 -0.6
v -1 0 0.5
v -0.8 0 0.5
v -0.3 0 0.5
v 0.3 0 0.5
v 0.8 0 0.5
v 0.9 0 0.5
v -0.8 0 0.4
v -0.3 0 0.4
v 0.3 0 0.4
v 0.8 0 0.4
v -0.8 0 -0.5
v -0.3 0 -0.5
v 0.3 0 -0.5
v 0.8 0 -0.5
v -1 0 -0.6
v -0.8 0 -0.6
v -0.3 0 -0.6
v 0.3 0 -0.6
v 0.8 0 -0.6
v 0.9 0 -0.6
v 0.9 0.1 0.5
v 1 0.1 0.5
v 0.9 0.1 -0.6
v 1 0.1 -0.6
v -1 1.3 0.5
v 1 1.3 0.5
v -0.9 1.3 0.4
v 1 1.3 0.4
v -0.9 1.3 -0.5
v 1 1.3 -0.5
v -1 1.3 -0.6
v 1 1.3 -0.6
v 0.9 1.4 0.4
v 1 1.4 0.4
v 0.9 1.4 0.1
v 0.9 1.4 0
v 0.9 1.4 -0.1
v 0.9 1.4 -0.2
v 0.9 1.4 -0.5
v 1 1.4 -0.5
v 0.1 1.5 0.4
v 0.9 1.5 0.4
v 0.5 1.5 0.1
v 0.9 1.5 0.1
v 0.2 1.5 0
v 0.5 1.5 0
v 0.9 1.5 0
v 0.2 1.5 -0.1
v 0.5 1.5 -0.1
v 0.9 1.5 -0.1
v 0.5 1.5 -0.2
v 0.9 1.5 -0.2
v 0.1 1.5 -0.5
v 0.9 1.5 -0.5
v -0.9 2 0.4
v 0.1 2 0.4
v -0.9 2 -0.5
v 0.1 2 -0.5

# faces
f 3/2/1 2/2/1 1/2/1
f 4/2/1 2/2/1 3/2/1
f 5/4/1 4/4/1 3/4/1
f 6/4/1 4/4/1 5/4/1
f 9/4/1 8/4/1 7/4/1
f 10/4/1 8/4/1 9/4/1
f 11/4/1 9/4/1 7/4/1
f 11/3/1 10/3/1 9/3/1
f 12/4/1 8/4/1 10/4/1
f 12/3/1 10/3/1 11/3/1
f 13/4/1 11/4/1 7/4/1
f 13/1/1 12/1/1 11/1/1
f 14/4/1 8/4/1 12/4/1
f 14/1/1 12/1/1 13/1/1
f 15/4/1 13/4/1 7/4/1
f 15/4/1 14/4/1 13/4/1
f 16/4/1 8/4/1 14/4/1
f 16/4/1 14/4/1 15/4/1
f 17/4/2 18/4/2 19/4/2
f 19/4/2 18/4/2 20/4/2
f 17/4/2 19/4/2 21/4/2
f 19/3/2 20/3/2 21/3/2
f 20/4/2 18/4/2 22/4/2
f 21/3/2 20/3/2 22/3/2
f 17/4/2 21/4/2 23/4/2
f 21/1/2 22/1/2 23/1/2
f 22/4/2 18/4/2 24/4/2
f 23/1/2 22/1/2 24/1/2
f 17/4/2 23/4/2 25/4/2
f 23/4/2 24/4/2 25/4/2
f 24/4/2 18/4/2 26/4/2
f 25/4/2 24/4/2 26/4/2
f 27/2/2 28/2/2 29/2/2
f 29/2/2 28/2/2 30/2/2
f 31/4/2 32/4/2 37/4/2
f 32/3/2 33/3/2 38/3/2
f 37/4/2 32/4/2 38/4/2
f 33/4/2 34/4/2 39/4/2
f 38/3/2 33/3/2 39/3/2
f 34/3/2 35/3/2 40/3/2
f 39/4/2 34/4/2 40/4/2
f 35/4/2 36/4/2 41/4/2
f 40/3/2 35/3/2 41/3/2
f 41/4/2 36/4/2 42/4/2
f 43/2/2 44/2/2 45/2/2
f 45/2/2 44/2/2 46/2/2
f 45/4/2 46/4/2 47/4/2
f 47/4/2 46/4/2 48/4/2
f 48/4/2 46/4/2 49/4/2
f 49/4/2 46/4/2 50/4/2
f 50/4/2 46/4/2 51/4/2
f 51/4/2 46/4/2 52/4/2
f 45/4/2 47/4/2 53/4/2
f 47/3/2 48/3/2 53/3/2
f 48/4/2 49/4/2 54/4/2
f 53/3/2 48/3/2 54/3/2
f 49/3/2 50/3/2 55/3/2
f 54/4/2 49/4/2 55/4/2
f 50/4/2 51/4/2 56/4/2
f 55/3/2 50/3/2 56/3/2
f 51/3/2 52/3/2 57/3/2
f 56/4/2 51/4/2 57/4/2
f 52/4/2 46/4/2 58/4/2
f 57/3/2 52/3/2 58/3/2
f 56/4/2 57/4/2 59/4/2
f 55/4/2 56/4/2 59/4/2
f 57/4/2 58/4/2 59/4/2
f 54/4/2 55/4/2 59/4/2
f 53/4/2 54/4/2 59/4/2
f 45/4/2 53/4/2 59/4/2
f 59/4/2 58/4/2 60/4/2
f 58/4/2 46/4/2 61/4/2
f 60/4/2 58/4/2 61/4/2
f 61/4/2 46/4/2 62/4/2
f 60/4/2 61/4/2 63/4/2
f 63/4/2 61/4/2 64/4/2
f 68/2/3 66/2/3 65/2/3
f 69/4/3 67/4/3 66/4/3
f 69/2/3 66/2/3 68/2/3
f 70/4/3 67/4/3 69/4/3
f 71/3/3 69/3/3 68/3/3
f 71/3/3 70/3/3 69/3/3
f 72/3/3 70/3/3 71/3/3
f 73/1/3 72/1/3 71/1/3
f 74/1/3 72/1/3 73/1/3
f 75/1/3 73/1/3 71/1/3
f 75/3/3 74/3/3 73/3/3
f 76/1/3 72/1/3 74/1/3
f 76/3/3 74/3/3 75/3/3
f 77/3/3 71/3/3 68/3/3
f 77/1/3 75/1/3 71/1/3
f 77/1/3 76/1/3 75/1/3
f 78/1/3 72/1/3 76/1/3
f 78/1/3 76/1/3 77/1/3
f 78/3/3 70/3/3 72/3/3
f 79/3/3 77/3/3 68/3/3
f 79/3/3 78/3/3 77/3/3
f 80/3/3 70/3/3 78/3/3
f 80/3/3 78/3/3 79/3/3
f 81/4/3 67/4/3 70/4/3
f 81/3/3 70/3/3 80/3/3
f 82/2/3 80/2/3 79/2/3
f 83/4/3 81/4/3 80/4/3
f 83/2/3 80/2/3 82/2/3
f 84/4/3 67/4/3 81/4/3
f 84/4/3 81/4/3 83/4/3
f 85/3/3 83/3/3 82/3/3
f 85/3/3 84/3/3 83/3/3
f 86/3/3 84/3/3 85/3/3
f 87/1/3 86/1/3 85/1/3
f 88/1/3 86/1/3 87/1/3
f 89/1/3 87/1/3 85/1/3
f 89/3/3 88/3/3 87/3/3
f 90/1/3 86/1/3 88/1/3
f 90/3/3 88/3/3 89/3/3
f 91/3/3 85/3/3 82/3/3
f 91/1/3 89/1/3 85/1/3
f 91/1/3 90/1/3 89/1/3
f 92/1/3 86/1/3 90/1/3
f 92/1/3 90/1/3 91/1/3
f 92/3/3 84/3/3 86/3/3
f 93/3/3 91/3/3 82/3/3
f 93/3/3 92/3/3 91/3/3
f 94/3/3 84/3/3 92/3/3
f 94/3/3 92/3/3 93/3/3
f 95/4/3 67/4/3 84/4/3
f 95/3/3 84/3/3 94/3/3
f 96/2/3 94/2/3 93/2/3
f 97/2/3 94/2/3 96/2/3
f 98/2/3 94/2/3 97/2/3
f 99/4/3 95/4/3 94/4/3
f 99/2/3 94/2/3 98/2/3
f 100/4/3 67/4/3 95/4/3
f 100/4/3 95/4/3 99/4/3
f 103/4/3 102/4/3 101/4/3
f 104/4/3 102/4/3 103/4/3
f 105/3/3 104/3/3 103/3/3
f 106/4/3 102/4/3 104/4/3
f 106/3/3 104/3/3 105/3/3
f 107/3/3 105/3/3 103/3/3
f 107/1/3 106/1/3 105/1/3
f 108/4/3 102/4/3 106/4/3
f 108/1/3 106/1/3 107/1/3
f 109/4/3 103/4/3 101/4/3
f 109/3/3 107/3/3 103/3/3
f 109/3/3 108/3/3 107/3/3
f 110/4/3 102/4/3 108/4/3
f 110/3/3 108/3/3 109/3/3
f 111/4/3 109/4/3 101/4/3
f 111/4/3 110/4/3 109/4/3
f 112/4/3 102/4/3 110/4/3
f 112/4/3 110/4/3 111/4/3
f 113/4/3 111/4/3 101/4/3
f 114/4/3 111/4/3 113/4/3
f 115/4/3 113/4/3 101/4/3
f 116/4/3 113/4/3 115/4/3
f 117/4/4 118/4/4 119/4/4
f 119/4/4 118/4/4 120/4/4
f 119/3/4 120/3/4 121/3/4
f 120/4/4 118/4/4 122/4/4
f 121/3/4 120/3/4 122/3/4
f 119/3/4 121/3/4 123/3/4
f 121/1/4 122/1/4 123/1/4
f 122/4/4 118/4/4 124/4/4
f 123/1/4 122/1/4 124/1/4
f 117/4/4 119/4/4 125/4/4
f 119/3/4 123/3/4 125/3/4
f 123/3/4 124/3/4 125/3/4
f 124/4/4 118/4/4 126/4/4
f 125/3/4 124/3/4 126/3/4
f 117/4/4 125/4/4 127/4/4
f 125/4/4 126/4/4 127/4/4
f 126/4/4 118/4/4 128/4/4
f 127/4/4 126/4/4 128/4/4
f 117/4/4 127/4/4 129/4/4
f 129/4/4 127/4/4 130/4/4
f 117/4/4 129/4/4 131/4/4
f 131/4/4 129/4/4 132/4/4
f 133/2/4 134/2/4 136/2/4
f 134/4/4 135/4/4 137/4/4
f 136/2/4 134/2/4 137/2/4
f 137/4/4 135/4/4 138/4/4
f 136/3/4 137/3/4 139/3/4
f 137/3/4 138/3/4 139/3/4
f 139/3/4 138/3/4 140/3/4
f 139/1/4 140/1/4 141/1/4
f 141/1/4 140/1/4 142/1/4
f 139/1/4 141/1/4 143/1/4
f 141/3/4 142/3/4 143/3/4
f 142/1/4 140/1/4 144/1/4
f 143/3/4 142/3/4 144/3/4
f 136/3/4 139/3/4 145/3/4
f 139/1/4 143/1/4 145/1/4
f 143/1/4 144/1/4 145/1/4
f 144/1/4 140/1/4 146/1/4
f 145/1/4 144/1/4 146/1/4
f 140/3/4 138/3/4 146/3/4
f 136/3/4 145/3/4 147/3/4
f 145/3/4 146/3/4 147/3/4
f 146/3/4 138/3/4 148/3/4
f 147/3/4 146/3/4 148/3/4
f 138/4/4 135/4/4 149/4/4
f 148/3/4 138/3/4 149/3/4
f 147/2/4 148/2/4 150/2/4
f 148/4/4 149/4/4 151/4/4
f 150/2/4 148/2/4 151/2/4
f 149/4/4 135/4/4 152/4/4
f 151/4/4 149/4/4 152/4/4
f 150/3/4 151/3/4 153/3/4
f 151/3/4 152/3/4 153/3/4
f 153/3/4 152/3/4 154/3/4
f 153/1/4 154/1/4 155/1/4
f 155/1/4 154/1/4 156/1/4
f 153/1/4 155/1/4 157/1/4
f 155/3/4 156/3/4 157/3/4
f 156/1/4 154/1/4 158/1/4
f 157/3/4 156/3/4 158/3/4
f 150/3/4 153/3/4 159/3/4
f 153/1/4 157/1/4 159/1/4
f 157/1/4 158/1/4 159/1/4
f 158/1/4 154/1/4 160/1/4
f 159/1/4 158/1/4 160/1/4
f 154/3/4 152/3/4 160/3/4
f 150/3/4 159/3/4 161/3/4
f 159/3/4 160/3/4 161/3/4
f 160/3/4 152/3/4 162/3/4
f 161/3/4 160/3/4 162/3/4
f 152/4/4 135/4/4 163/4/4
f 162/3/4 152/3/4 163/3/4
f 161/2/4 162/2/4 164/2/4
f 164/2/4 162/2/4 165/2/4
f 165/2/4 162/2/4 166/2/4
f 162/4/4 163/4/4 167/4/4
f 166/2/4 162/2/4 167/2/4
f 163/4/4 135/4/4 168/4/4
f 167/4/4 163/4/4 168/4/4
f 175/2/5 170/2/5 169/2/5
f 175/3/5 171/3/5 170/3/5
f 176/2/5 172/2/5 171/2/5
f 176/3/5 171/3/5 175/3/5
f 177/3/5 173/3/5 172/3/5
f 177/2/5 172/2/5 176/2/5
f 178/2/5 174/2/5 173/2/5
f 178/3/5 173/3/5 177/3/5
f 179/2/5 177/2/5 176/2/5
f 179/2/5 176/2/5 175/2/5
f 179/2/5 178/2/5 177/2/5
f 179/2/5 175/2/5 169/2/5
f 180/2/5 178/2/5 179/2/5
f 181/2/5 178/2/5 180/2/5
f 182/2/5 174/2/5 178/2/5
f 182/2/5 178/2/5 181/2/5
f 183/2/5 179/2/5 169/2/5
f 184/3/5 180/3/5 179/3/5
f 184/2/5 179/2/5 183/2/5
f 185/2/5 181/2/5 180/2/5
f 185/3/5 180/3/5 184/3/5
f 186/3/5 182/3/5 181/3/5
f 186/2/5 181/2/5 185/2/5
f 187/2/5 174/2/5 182/2/5
f 187/3/5 182/3/5 186/3/5
f 188/2/5 174/2/5 187/2/5
f 191/2/5 190/2/5 189/2/5
f 192/2/5 190/2/5 191/2/5
f 193/4/6 194/4/6 195/4/6
f 195/4/6 194/4/6 196/4/6
f 193/4/6 195/4/6 197/4/6
f 193/4/6 197/4/6 199/4/6
f 197/4/6 198/4/6 199/4/6
f 199/4/6 198/4/6 200/4/6
f 201/4/6 202/4/6 203/4/6
f 203/4/6 202/4/6 204/4/6
f 204/4/6 202/4/6 205/4/6
f 205/4/6 202/4/6 206/4/6
f 206/4/6 202/4/6 207/4/6
f 207/4/6 202/4/6 208/4/6
f 209/4/6 210/4/6 211/4/6
f 211/4/6 210/4/6 212/4/6
f 209/4/6 211/4/6 213/4/6
f 211/3/6 212/3/6 214/3/6
f 213/4/6 211/4/6 214/4/6
f 214/3/6 212/3/6 215/3/6
f 209/4/6 213/4/6 216/4/6
f 213/3/6 214/3/6 216/3/6
f 214/4/6 215/4/6 217/4/6
f 216/3/6 214/3/6 217/3/6
f 217/4/6 215/4/6 218/4/6
f 216/4/6 217/4/6 219/4/6
f 217/3/6 218/3/6 219/3/6
f 219/3/6 218/3/6 220/3/6
f 209/4/6 216/4/6 221/4/6
f 216/4/6 219/4/6 221/4/6
f 219/4/6 220/4/6 221/4/6
f 221/4/6 220/4/6 222/4/6
f 223/4/6 224/4/6 225/4/6
f 225/4/6 224/4/6 226/4/6
